<svg id="Layer_1" data-name="Layer 1" xmlns="http://www.w3.org/2000/svg" viewBox="0 0 231.7 100.29"><defs><style>.cls-1{opacity:0.5;}.cls-2{fill:none;stroke:#fff;stroke-width:7.78px;}</style></defs><title>cnn</title><g id="EQ-Landing-2" class="cls-1"><g id="Landing-2"><g id="Logo-Montage-2"><g id="News-2"><g id="CNN"><g id="Layer_1-3" data-name="Layer 1-3"><g id="Group-2"><path id="Shape-6" d="M278.26,123.12a3.71,3.71,0,0,0,3.6-3.47V70.3c0-18.31,25.83-27.17,39.59-5.78,14,21.78,22,34.51,22,34.51V70.3c0-18.31,25.83-27.17,39.59-5.78C397,86.3,405,99,405,99V52.38h31v81.73c0,21-27.11,24.28-38.12,7.51-6.56-9.83-23.5-35.27-23.5-35.27v27.76c0.21,21-26.89,24.28-38.11,7.52C329.71,131.8,313,106.35,313,106.35v25.06c0,12.92-8.26,19.66-21.17,19.66H262c-76.43,0-77.07-98.69-1.06-98.69h16.94V80.33H259.2c-31.13,0-34.51,42.79,2.12,42.79h16.94Z" transform="translate(-204.3 -52.03)"/><path id="Shape-7" class="cls-2" d="M420.54,52.38v80c0,5-5.29,6.17-8,2.7,0,0-36-52.62-45.1-66.31-2.76-3.47-8.47-2.31-8.47,2.89v60.72c0,5-5.09,6.17-7.84,2.7,0,0-36.2-52.62-45.31-66.31-2.75-3.47-8.47-2.31-8.47,2.89V132a5.24,5.24,0,0,1-5.47,5h-32c-54.41,0-52.72-70.55-1.26-70.55h19.69" transform="translate(-204.3 -52.03)"/></g></g></g></g></g></g></g></svg>