<svg id="Layer_1" data-name="Layer 1" xmlns="http://www.w3.org/2000/svg" viewBox="0 0 446.02 72.02"><defs><style>.cls-1{opacity:0.5;}</style></defs><title>fortune</title><g class="cls-1"><path d="M150.91,188H97.13v1.87l11.41,0.43v66.31L97.13,257v1.88H133V257l-12.34-.43v-34.3h12.53L134.82,237H137V206.2h-2.16l-1.68,14H120.61V190.28h20.94l7.86,22h2.14L150.91,188m93,34.31v-32h8.51c10.76,0,13.57,5.69,13.57,15.24,0,10.22-1.69,16.77-13.57,16.77H244M253.31,188H220.67v1.87l11.41,0.43v66.31l-11.32.43v1.88H255V257l-11-.43V224.42h6.83c8.69,0,11.31,1.28,12.9,10.8l3.94,23.68h21V257l-9.72-.43-4-22.45c-1.41-8.17-6.54-10.12-15.14-10.9,10.84-1.7,17.85-6.64,17.85-17.87,0-11.06-4.12-17.37-24.4-17.37m89.87,0H286.79l-0.85,24.26h2.25l8-22.05h13v66.32l-12.06.51v1.88h35.81V257L321,256.51V190.19h12.9l7.85,22.05h2.16L343.18,188m70.69,0H391v1.87l9.34,0.94v52.1c0,8.85-4.76,12.43-15,12.43-14.5,0-17.21-4.43-17.21-13v-52l11.88-.43V188H345.52v1.87l10.28,0.43V241c0,12.61,7.59,18.24,25.06,18.3h0.54c19-.07,22.37-8,22.37-16.43v-52.1l10.1-.94V188M484,188H458.87v1.87l10.94,0.94V236.7L437.17,188H416.4v1.87l8.14,0.94,1.4,2V256l-11.51,1v1.88h25.73V257l-10.94-1V197.59l41.89,61.56h2V190.79l10.94-.94V188m56.48,0H486.17v1.87l11.5,0.43v66.31l-11.5.43v1.88H541l2.15-26.48h-2.06l-9.44,24.17-21.79.09V222.29H522.4L523.76,237h2.15V206.2h-2.15l-1.39,14H509.83V190.28h21.79l7.29,21.63h2.15L540.5,188M188.87,257.11c-14.12,0-18.52-8.17-18.52-34.06,0-25.54,4.21-33.54,18-33.54,14,0,18.14,8.18,18.14,33.46,0,25.45-4.11,34.14-17.58,34.14m-0.28-69.81h0c-22.45,0-31.33,15-31.33,36.35,0,21,8.83,35.58,30.84,35.67h0.42c21.82-.09,31-15.22,31-36.61,0-21-8.88-35.41-31-35.41" transform="translate(-97.13 -187.3)"/></g></svg>