<svg id="Layer_1" data-name="Layer 1" xmlns="http://www.w3.org/2000/svg" viewBox="0 0 608.21 73.54"><defs><style>.cls-1{opacity:0.5;}</style></defs><title>boston-globe</title><g id="EQ-Landing" class="cls-1"><g id="Landing"><g id="Logo-Montage"><g id="News"><g id="the-boston-globe"><g id="Layer_1-2" data-name="Layer 1-2"><g id="Group"><path id="Shape" d="M141.07,353.62l-0.88-.74c-4.34,4.2-6.26,5.34-9.49,5.34-2.43,0-5.3-1.41-9.2-4.74V343.41l19.57-13.53-13.39-12c-5.81,4.21-6.77,4.94-11,7.94a26.64,26.64,0,0,1-5.14,2.93,39.76,39.76,0,0,1,.51,5.07v22.54c-2.28,1.93-4.49,2.8-6.11,2.8-2.2,0-3.82-1.2-3.82-3.33V325.67c-1.32-3.8-3.9-6.27-9-7.86l-12.36,9.07V305.67c0-3.07,1.92-5.87,3.68-6.6v-0.4a10.91,10.91,0,0,0-10.08,6.4L72.3,301l-0.81.13v54.22c-4.93,2.33-10.22,4.93-16,4.93a25.77,25.77,0,0,1-3.16-.13V313.8a54.81,54.81,0,0,0,5.74.4,12.07,12.07,0,0,0,4.85-.86L69.58,301l-1.11-.2c-2.57,4.67-4,5.4-9.48,5.4-2.58,0-8.31-.6-14-1.26-5.44-.61-11-1.2-13.83-1.2-8.46,0-13.31,5.26-13.31,10.73a10.13,10.13,0,0,0,2.43,6.4l1-.67a6.5,6.5,0,0,1-1.76-4.13c0-2.27,1.91-4.2,7.06-4.2,2.06,0,9.27.6,16,1.06a132.37,132.37,0,0,0-21.63,12.34A22.3,22.3,0,0,0,16,339.48c0,13.26,11.11,27.67,35.74,27.67C59,363.48,69.59,358,69.59,358l9.78,8,6.76-6.07-5.29-5V329.14c2.35-2.87,4.93-4.07,6.91-4.07a5.08,5.08,0,0,1,5.08,4.14v30.94c0.81,2.6,4.19,5.07,7.58,5.94l12.13-8.27,14,8.73,14.56-12.93h0Zm-8.61-19.81-11,8V324.54l0.37-.33,10.59,9.6h0ZM51,360a31.71,31.71,0,0,1-17-6.67c8.38-5.54,10.29-8.74,10.29-14.87v-25l0.3-.26c2.72,0.26,4.19.4,6.4,0.53V360h0ZM35.45,344.48c0,3.73-.66,5.93-2.87,7.67-5-4.67-7.72-11.34-7.72-18.87,0-4.14.81-7.4,2.43-9.61a52.81,52.81,0,0,1,8.17-5.4v26.21h0Z" transform="translate(-16 -298.67)"/><path id="Shape-2" d="M263.45,325.27l-15.59-7.73c-4.78,4.33-10.89,7.73-17.8,11.2,0.95,2.6.66,5.94,0.66,10.07,0,10.27.15,15.81-1.91,18.54L246.1,367a64.16,64.16,0,0,1,16.84-11.34,13.32,13.32,0,0,1-.74-4.66V333.41C262.2,328.28,262.79,326.41,263.45,325.27ZM224.62,336l-12.14-7.27c4.63-2.6,6.11-3.33,7.8-4.47,2.79-1.8,3.6-2.93,3.6-4.06,0-.8-0.37-2.4-2.58-5.4-2.72-3.67-5.29-7.27-10.73-14.14-7.58,4.66-11.77,7.47-19.79,13.13a13.12,13.12,0,0,0-5.73,10.74c0,1.6.14,9.87,0.14,15.27,0,4.2-.81,6.41-5.73,10.14-11.77,0-18.83,6.86-18.83,13.8a11.73,11.73,0,0,0,3.53,8.47l0.81-.73a9,9,0,0,1-2.72-6.54c0-3.66,2.94-7.73,12.35-7.73,10.3,0,19.94,6.4,25.53,9.47,8-6.14,13.09-8.74,23.39-11.81V339.21a5.28,5.28,0,0,1,1.1-3.2h0Zm-28.39-31.14-0.29-.8A64.48,64.48,0,0,1,184.09,303a56.3,56.3,0,0,0-8.68-.86c-9,0-14.78,4.2-14.78,10.93a8,8,0,0,0,2.72,6.54l0.81-.74a5.61,5.61,0,0,1-1.69-3.8c0-2.93,2.72-5.53,8.75-5.53A58.55,58.55,0,0,1,183.28,311c-7.58,5.07-12.21,8.74-12.21,19.47a13.78,13.78,0,0,0-4.63-.6c-5.74,0-8.68,3.4-8.68,6.74a6,6,0,0,0,1.47,4.2l1-.47a4.46,4.46,0,0,1-.67-2.26c0-2.2,1.92-3.94,5.45-3.94,3.08,0,5.44,1.27,6.47,3,0,7.47-1.62,11.34-6,11.34v0.8c6.54,0,14.41-4.27,14.41-11.2V324.27c0-11.33,7.37-16.6,16.34-19.4h0Zm56.19,55.55-0.52.33-10.73-5.87v-31.2l11.25,5.81v30.94h0ZM214,324.08c0,2.66-2.72,4.06-11.85,9.2v-7.87c0-3.93.3-6.14,0.37-7.74h-1.84a59,59,0,0,1,.37,7.74v31.4c-5.66-3.06-12.65-6.26-19.93-6.73,6.92-3.6,13.83-8.4,13.83-15.4V319.27c0-4.93,2.2-7.93,7.87-12.34,4.48,6,6.25,8.6,9.78,14.07a7.6,7.6,0,0,1,1.4,3.08h0Zm-1.55,15.4-0.22,17.74A42.74,42.74,0,0,0,207,360c-1.55-.87-3-1.74-4.78-2.67V334.41l10.29,5.07h-0.06Z" transform="translate(-16 -298.67)"/><path id="Shape-3" d="M411.43,357.82l-1-1-4.63,3.61a3.66,3.66,0,0,1-3.89-3.87c0-2.07.14-26.47,0.21-30.68-1.76-3.2-4-5.66-9.19-7.27l-12.36,8.28c0-3.41-2.2-6.54-6.4-8.47L367,323.94l3.83,3.67s-0.14,21.67-.14,25.27a9.1,9.1,0,0,1-2.87,6.14l11.25,7.53,6-6.67-4.49-3.66V329.14c2.13-2.6,4.49-3.74,6.47-3.74a4.78,4.78,0,0,1,4.79,3.61c0.14,1.6.14,4.13,0.14,6.87,0,4.2,0,19-.14,24.74,0.8,2.6,5,6.2,7.72,6.2l11.84-9h0Zm-49.35-1.74a15.31,15.31,0,0,1-.66-4.67V325.54L346.64,318c-4.78,4.34-10.23,7.4-17.14,10.87a15.48,15.48,0,0,1,.66,4.54v21.8c-2.13,2.14-4.34,3.34-6.25,3.34s-3.75-.73-5.81-2.73c0-1.67.15-20.41,0.15-31.88h10.59v-2.33l-10.59-.4s0.07-9,.22-10.8h-1.18l-14.86,14.13c-6.32-.86-11.1-2.93-18-7.26a47.13,47.13,0,0,1-15.67,10.2,66.49,66.49,0,0,1,.44,7.53,61,61,0,0,1-.29,7.54l8.68,5.53-8.17,7.74c-3.53,3.33-4.85,6.07-4.85,8.8a9.35,9.35,0,0,0,2.72,6.27l1-.53a8.31,8.31,0,0,1-1.76-4.81c0-2.53,1.47-4.8,5.66-4.8s8.83,2.47,13.46,5.81c5.15-4.34,9-7.14,14.71-9.74V344.28a7.13,7.13,0,0,1,.52-3.07l-8.68-5.33,11.11-10.94h5.22c0,11.21-.15,25.61-0.15,27.21a10.8,10.8,0,0,1-1.91,6.4l12.36,8.27,10.58-8.74,15.38,9.07c6-5,10.73-8.33,17.35-11.07h-0.06Zm-10.59,4.54L351,361l-10.88-6V324.21l11.4,6.13v30.28h0Zm-56.12-29.88L284,342l-5-3.34v-15a48,48,0,0,0,16.4,7.07h0Zm-4.49,29.68c-3.89-3.2-9.34-5.94-18-5.94l13.31-12.8,4.56,3.66,0.14,15.08h0Z" transform="translate(-16 -298.67)"/><path id="Shape-4" d="M549,324.81l-16.33-7.67a68.8,68.8,0,0,1-16.47,10.27c0.44,1.07.8,5.67,0.8,8.47l0.08,20.34a6.68,6.68,0,0,1-4.49,2.2,9.67,9.67,0,0,1-5.22-1.94V307.2c0-2.86,1.91-6.2,4.34-6.2v-0.33c-5,0-9.49,2.07-10.81,5.54a7.1,7.1,0,0,0-6-3.47l-0.07.53c1.62,0,3.23,4.13,3.23,8.07V351c0,3.8-.59,5.73-2.2,7.87L506.68,366l10.23-8,15.74,8.6c6-5.07,9.48-8,16.18-11.6a38.72,38.72,0,0,1-.6-6.87V330.61c0-3,.15-4.6.74-5.8h0Zm-58.5-19.14-1.18-.94L484.83,309a134.65,134.65,0,0,1-21-8.33c-12.87,8.87-22.65,15.13-35.3,23.27a25.2,25.2,0,0,0-4.64,15.13c0,15.81,16,28.08,36.26,28.08,13.17-5,22.59-12.07,29.5-20.54a26.14,26.14,0,0,0,.59-5.53c0-11.48-8.61-17.87-17.73-19.88l18-15.53h0Zm48.39,53.75-0.8.46-11.55-6.6V323.81l12.21,5.4,0.14,30.21h0Zm-62.81-43.15L461.59,328V309.87a137.73,137.73,0,0,1,14.49,6.4h0Zm5.3,29.21a23.41,23.41,0,0,1-1.47,9c-3.9,3.6-9.79,5.67-16.4,5.67h-1.92V328.48a28.32,28.32,0,0,1,3.38-.2C474.76,328.28,481.38,336.28,481.38,345.48ZM460.19,360a30.79,30.79,0,0,1-17.13-6c6.69-4.2,10.89-6.33,10.89-12.73V309.4l2.06-1.46c1.47,0.46,2.72,1,4.19,1.46V360h0Zm-14.63-14.14A7.89,7.89,0,0,1,442,353a24.78,24.78,0,0,1-8.31-18.74c0-10.34,4-14.28,9.34-17.87,0.88-.61,1.69-1.07,2.5-1.6v31.07h0Z" transform="translate(-16 -298.67)"/><path id="Shape-5" d="M624.21,353.62l-0.81-.74c-4.19,3.8-6.62,5.4-9.12,5.4s-4.7-1.33-9.64-4.8V343.41l19.2-13.94c-4.49-3.46-13.75-11.8-13.75-11.8a128.53,128.53,0,0,1-15.38,11.07,23.48,23.48,0,0,1,.6,4.67V353a10.16,10.16,0,0,1-.74,3.94l15.08,9.6,14.56-12.93h0ZM587.36,356c-0.66-5.54-.51-20.54-0.51-27.61,0-4.54-4.34-7.87-9.79-9.94L566,326.87V308.4c0-3.07,2-6.4,4.49-6.4v-0.6c-5.3,0-11.18,3.8-12.14,6.27-1.18-1.87-4-2.94-6.76-2.94l-0.15.94c2.72,0,5.29,4.2,5.29,11.6,0,14.94-.15,29.21-0.15,35.34a7.37,7.37,0,0,1-1.46,4.94l16.69,9.27A81.87,81.87,0,0,1,587.36,356Zm27.73-22.28-10.45,7.74v-17.6l10.45,9.86h0Zm-37.22,10.21c0,5.4-.29,16-0.29,16.4l-0.37.33L566,354.21V329.14a8.14,8.14,0,0,1,6.32-3.74c2.65,0,4.49,1.74,5.45,4.07,0,1,.14,7.54.14,14.41Z" transform="translate(-16 -298.67)"/></g></g></g></g></g></g></g></svg>